<svg width="3058" height="536" fill="none" xmlns="http://www.w3.org/2000/svg">
<path d="M0 119.018L2.93474e-05 535.604H3057.68V38.1551C3057.68 38.1551 2994.19 -2.02362 2883.51 0.0797967C2793.48 1.79079 2702.23 91.1618 2612.2 92.8728C2524.03 94.5484 2487.04 49.0002 2398.87 50.6758C2310.29 52.3593 2237.08 100.002 2148.49 101.685C2059.09 103.384 2001.31 58.0093 1911.9 59.7086C1842.73 61.0232 1763.1 137.581 1693.93 138.896C1635.29 140.01 1534.99 81.7159 1534.99 81.7159L1522.7 75.4574C1522.7 75.4574 1459.2 35.2787 1348.52 37.3821C1258.49 39.0931 1167.24 128.464 1077.21 130.175C989.043 131.851 952.055 86.3025 863.885 87.9782C775.302 89.6617 702.089 137.304 613.507 138.988C524.098 140.687 466.322 95.3117 376.914 97.0109C307.741 98.3255 228.114 174.884 158.941 176.198C100.299 177.313 0 119.018 0 119.018Z" fill="white"/>
</svg>
