<svg width="3071" height="694" fill="none" xmlns="http://www.w3.org/2000/svg">
<path d="M0 240.998L0.000141124 694L3071 469.504V27.2963C3071 27.2963 3053.71 6.5625 3016.78 0.282979C2973.02 -2.96337 2901.21 22.4837 2861.83 37.5721C2820.11 53.5615 2774.22 93.062 2737.7 106.967C2648.09 141.087 2537.35 51.3823 2443.79 71.1488C2356.21 89.6543 2320.37 133.919 2231.18 141.441C2121.19 150.717 2026.21 90.1524 1917.1 106.685C1835.44 119.058 1794.99 155.932 1713.12 166.892C1621.52 179.156 1560.13 154.438 1560.13 154.438C1560.13 154.438 1543.26 145.782 1534.02 138.425C1523.55 130.087 1510.87 113.856 1510.87 113.856C1510.87 113.856 1493.59 93.1227 1456.65 86.8432C1412.89 83.5968 1341.08 109.044 1301.7 124.132C1259.98 140.122 1214.09 179.622 1177.57 193.528C1087.96 227.647 977.218 137.943 883.665 157.709C796.08 176.215 760.245 220.48 671.048 228.002C561.056 237.277 466.083 176.713 356.969 193.245C275.31 205.618 234.858 242.492 152.996 253.452C61.3939 265.716 0 240.998 0 240.998Z" fill="#D9025C" fill-opacity="0.2"/>
</svg>
