<svg width="2880" height="1284" viewBox="0 0 2880 1284" fill="none" xmlns="http://www.w3.org/2000/svg">
<path d="M0.000702472 681.516L0 1283.19L2880 725.045V0C2880 0 2740.45 153.541 2642.65 209.224C2553.46 260 2501.12 233.766 2409.1 259.434C2322.95 283.465 2273.48 332.339 2186.53 337.283C2079.3 343.379 2020.26 268.386 1913.38 287.077C1833.4 301.066 1793.08 365.464 1713 376.997C1623.39 389.902 1484.34 333.468 1484.34 333.468C1484.34 333.468 1457.66 320.847 1438.56 323.601C1418.69 326.467 1395.66 348.048 1395.66 348.048C1395.66 348.048 1256.11 501.589 1158.31 557.272C1069.12 608.048 1016.78 581.814 924.759 607.482C838.611 631.513 789.141 680.387 702.186 685.331C594.959 691.427 535.916 616.434 429.041 635.125C349.056 649.114 308.744 713.512 228.661 725.045C139.049 737.95 0.000702472 681.516 0.000702472 681.516Z" fill="#D9025C" fill-opacity="0.2"/>
</svg>
