<?xml version="1.0" encoding="UTF-8"?>
<svg xmlns="http://www.w3.org/2000/svg" xmlns:xlink="http://www.w3.org/1999/xlink" width="768pt" height="767.999994pt" viewBox="0 0 768 767.999994" version="1.2">
<g id="surface1">
<path style=" stroke:none;fill-rule:nonzero;fill:#D9025C;fill-opacity:1;" d="M 376.464844 258.164062 L 470.390625 164.238281 L 589.195312 283.042969 L 495.269531 376.96875 Z M 376.464844 258.164062 "/>
<path style=" stroke:none;fill-rule:nonzero;fill:#D9025C;fill-opacity:1;" d="M 444.6875 525.714844 L 481.6875 562.710938 L 384.175781 660.222656 L 347.175781 623.226562 Z M 444.6875 525.714844 "/>
<path style=" stroke:none;fill-rule:nonzero;fill:#D9025C;fill-opacity:1;" d="M 521.585938 328.40625 L 577.996094 271.996094 L 667.648438 361.648438 L 611.238281 418.058594 Z M 521.585938 328.40625 "/>
<path style=" stroke:none;fill-rule:nonzero;fill:#D9025C;fill-opacity:1;" d="M 464.628906 474.949219 L 539.835938 399.746094 L 584.722656 444.632812 L 509.519531 519.835938 Z M 464.628906 474.949219 "/>
<path style=" stroke:none;fill-rule:nonzero;fill:#D9025C;fill-opacity:1;" d="M 92.992188 369.234375 L 190.992188 271.234375 L 201.945312 282.1875 L 103.945312 380.1875 Z M 92.992188 369.234375 "/>
<path style=" stroke:none;fill-rule:nonzero;fill:#D9025C;fill-opacity:1;" d="M 225.566406 236.660156 L 301.222656 161.003906 L 312.175781 171.957031 L 236.519531 247.613281 Z M 225.566406 236.660156 "/>
<path style=" stroke:none;fill-rule:nonzero;fill:#D9025C;fill-opacity:1;" d="M 241.570312 230.8125 L 333.621094 322.863281 L 322.667969 333.820312 L 230.613281 241.765625 Z M 241.570312 230.8125 "/>
<path style=" stroke:none;fill-rule:nonzero;fill:#D9025C;fill-opacity:1;" d="M 196.070312 276.3125 L 288.121094 368.363281 L 277.167969 379.316406 L 185.117188 287.265625 Z M 196.070312 276.3125 "/>
<path style=" stroke:none;fill-rule:nonzero;fill:#D9025C;fill-opacity:1;" d="M 271.730469 362.894531 L 318.011719 316.617188 L 328.964844 327.570312 L 282.6875 373.851562 Z M 271.730469 362.894531 "/>
<path style=" stroke:none;fill-rule:nonzero;fill:#D9025C;fill-opacity:1;" d="M 376.46875 258.160156 L 470.1875 164.441406 L 481.140625 175.394531 L 387.421875 269.113281 Z M 376.46875 258.160156 "/>
<path style=" stroke:none;fill-rule:nonzero;fill:#D9025C;fill-opacity:1;" d="M 607.785156 414.601562 L 664.074219 358.3125 L 675.03125 369.265625 L 618.738281 425.554688 Z M 607.785156 414.601562 "/>
<path style=" stroke:none;fill-rule:nonzero;fill:#D9025C;fill-opacity:1;" d="M 506.035156 516.351562 L 581.257812 441.128906 L 592.210938 452.082031 L 516.988281 527.304688 Z M 506.035156 516.351562 "/>
<path style=" stroke:none;fill-rule:nonzero;fill:#D9025C;fill-opacity:1;" d="M 373.070312 649.316406 L 460.117188 562.269531 L 471.074219 573.222656 L 384.027344 660.269531 Z M 373.070312 649.316406 "/>
<path style=" stroke:none;fill-rule:nonzero;fill:#D9025C;fill-opacity:1;" d="M 103.929688 358.320312 L 394.953125 649.34375 L 384 660.296875 L 92.972656 369.273438 Z M 103.929688 358.320312 "/>
<path style=" stroke:none;fill-rule:nonzero;fill:#D9025C;fill-opacity:1;" d="M 376.996094 479.09375 L 433.433594 422.65625 L 444.386719 433.613281 L 387.953125 490.046875 Z M 376.996094 479.09375 "/>
<path style=" stroke:none;fill-rule:nonzero;fill:#D9025C;fill-opacity:1;" d="M 433.816406 422.277344 L 526.230469 514.691406 L 515.277344 525.648438 L 422.863281 433.234375 Z M 433.816406 422.277344 "/>
<path style=" stroke:none;fill-rule:nonzero;fill:#D9025C;fill-opacity:1;" d="M 387.539062 468.558594 L 481.621094 562.640625 L 470.667969 573.59375 L 376.585938 479.511719 Z M 387.539062 468.558594 "/>
<path style=" stroke:none;fill-rule:nonzero;fill:#D9025C;fill-opacity:1;" d="M 533.203125 318.164062 L 629.605469 414.566406 L 618.652344 425.519531 L 522.246094 329.117188 Z M 533.203125 318.164062 "/>
<path style=" stroke:none;fill-rule:nonzero;fill:#D9025C;fill-opacity:1;" d="M 470.207031 164.4375 L 674.984375 369.214844 L 664.027344 380.167969 L 459.253906 175.390625 Z M 470.207031 164.4375 "/>
<path style=" stroke:none;fill-rule:nonzero;fill:#D9025C;fill-opacity:1;" d="M 306.660156 166.503906 L 398.351562 258.191406 L 387.394531 269.144531 L 295.707031 177.457031 Z M 306.660156 166.503906 "/>
<path style=" stroke:none;fill-rule:nonzero;fill:#D9025C;fill-opacity:1;" d="M 495.074219 354.914062 L 592.203125 452.042969 L 581.25 463 L 484.121094 365.871094 Z M 495.074219 354.914062 "/>
<path style=" stroke:none;fill-rule:nonzero;fill:#D9025C;fill-opacity:1;" d="M 484.144531 365.839844 L 532.527344 317.457031 L 543.480469 328.410156 L 495.097656 376.792969 Z M 484.144531 365.839844 "/>
</g>
</svg>
