<svg width="2880" height="180" viewBox="0 0 2880 180" fill="none" xmlns="http://www.w3.org/2000/svg">
<path d="M0 39.0109L3.79139e-06 180L2880 153.022V12.5062C2880 12.5062 2820.19 -0.663286 2715.95 0.0261551C2631.15 0.586973 2545.2 29.8803 2460.4 30.4411C2377.36 30.9904 2342.52 16.0609 2259.47 16.6101C2176.04 17.162 2107.08 32.7778 2023.64 33.3296C1939.43 33.8866 1885.01 19.0139 1800.8 19.5708C1735.65 20.0017 1660.65 45.0954 1595.49 45.5263C1540.26 45.8916 1445.79 26.7842 1445.79 26.7842L1434.21 24.7329C1434.21 24.7329 1374.4 11.5634 1270.16 12.2528C1185.36 12.8136 1099.41 42.107 1014.62 42.6678C931.57 43.217 896.73 28.2876 813.684 28.8368C730.249 29.3886 661.291 45.0045 577.856 45.5563C493.643 46.1132 439.224 31.2405 355.011 31.7975C289.858 32.2284 214.858 57.3221 149.705 57.7529C94.4706 58.1182 0 39.0109 0 39.0109Z" fill="white"/>
</svg>
